<svg width="58" height="54" viewBox="0 0 58 54" fill="none" xmlns="http://www.w3.org/2000/svg">
<path d="M7.08139 4.74971H1.12266C0.873179 4.74971 0.671676 4.74011 0.51815 4.72092C0.383815 4.70173 0.259075 4.64416 0.143931 4.54821C0.0479769 4.43306 0 4.27954 0 4.08763C0 3.28162 0.546936 2.42763 1.64081 1.52566C2.73468 0.623699 3.83815 0.143931 4.95121 0.0863584C6.19861 0.0287861 7.81063 0 9.78728 0C10.5933 0 11.3225 0.0191907 11.975 0.0575722C12.6467 0.0959537 13.4431 0.191907 14.3643 0.345433C15.3046 0.498959 16.1298 0.710058 16.8399 0.978728C17.5499 1.2474 18.2792 1.64081 19.0276 2.15896C19.7953 2.67711 20.4286 3.29121 20.9275 4.00127C21.4265 4.69214 21.8391 5.57491 22.1653 6.64959C22.4916 7.70509 22.6547 8.89491 22.6547 10.2191C22.6547 13.0593 21.4936 15.4006 19.1716 17.2429C18.8453 17.4924 18.6822 17.7131 18.6822 17.905C18.6822 18.1544 18.8261 18.3272 19.114 18.4231C21.6855 19.2675 23.6046 20.5245 24.8712 22.1941C26.1378 23.8637 26.7711 26.1282 26.7711 28.9876C26.7711 30.0431 26.6176 31.0986 26.3105 32.1541C26.0227 33.1904 25.5429 34.2171 24.8712 35.2342C24.2187 36.2321 23.4127 37.1245 22.4532 37.9113C21.5128 38.679 20.3326 39.3027 18.9125 39.7824C17.4924 40.243 15.9283 40.4733 14.2203 40.4733C13.5487 40.4733 13.2128 40.291 13.2128 39.9263C13.2128 39.6769 13.3664 39.4754 13.6734 39.3218C16.0531 38.2663 17.809 36.9134 18.9413 35.263C20.0735 33.6126 20.6397 31.5592 20.6397 29.1028C20.6397 24.2091 18.2408 21.3785 13.4431 20.6109C13.1361 20.5533 12.9825 20.3902 12.9825 20.1215C12.9825 19.872 13.2128 19.5842 13.6734 19.2579C14.6905 18.5095 15.5157 17.5403 16.149 16.3505C16.7823 15.1415 17.099 13.8077 17.099 12.3492C17.099 11.0443 16.907 9.92162 16.5232 8.98127C16.1586 8.02173 15.6788 7.28289 15.0839 6.76474C14.5082 6.2274 13.7502 5.8052 12.8098 5.49815C11.8887 5.17191 10.9963 4.9704 10.1327 4.89364C9.26913 4.79769 8.25202 4.74971 7.08139 4.74971ZM0 39.2355V8.20404C0 7.51318 0.230289 7.0526 0.690867 6.82231C1.17064 6.59202 1.89988 6.47688 2.87861 6.47688C3.95329 6.47688 4.70173 6.59202 5.12393 6.82231C5.56532 7.03341 5.78601 7.49399 5.78601 8.20404V14.9976C5.78601 15.7844 6.17942 16.1778 6.96624 16.1778H12.0326C12.8578 16.1778 13.2704 16.4369 13.2704 16.955C13.2704 17.1853 13.0593 17.5595 12.6371 18.0777C12.2149 18.5958 11.6968 19.0276 11.0827 19.3731C10.411 19.7569 9.03884 20.1311 6.96624 20.4957C6.17942 20.6492 5.78601 21.1578 5.78601 22.0214V34.5721C5.78601 35.359 6.17942 35.7524 6.96624 35.7524H13.1553C13.9805 35.7524 14.3931 35.9922 14.3931 36.472C14.3931 36.875 13.9325 37.3932 13.0113 38.0265C12.0902 38.6598 10.9195 39.2259 9.49942 39.7248C8.0985 40.2238 6.81272 40.4733 5.64208 40.4733H1.18023C0.39341 40.4733 0 40.0607 0 39.2355Z" fill="#D7D7D7"/>
<path d="M34.6187 50.9472L34.6186 50.9473L34.63 50.9543C35.8487 51.7018 37.2088 52.0732 38.6978 52.0732C40.1868 52.0732 41.5367 51.7018 42.7335 50.9518L42.7336 50.9518L42.7408 50.9472C43.9274 50.1749 44.8661 49.1315 45.5563 47.8277L45.5584 47.8238C46.2524 46.4842 46.5932 44.9699 46.5932 43.2928V30.1487C46.5932 29.6909 46.6955 29.2944 46.8913 28.9471L46.8914 28.9472L46.8974 28.9359C47.104 28.5464 47.365 28.2491 47.6773 28.0313C48.0108 27.8151 48.3499 27.7143 48.7033 27.7143C49.0879 27.7143 49.423 27.8189 49.7236 28.0273L49.7235 28.0274L49.7352 28.0351C50.0669 28.2514 50.3206 28.5418 50.4997 28.917L50.507 28.9323L50.5154 28.9471C50.7111 29.2944 50.8134 29.6909 50.8134 30.1487V51.131V51.1585L50.8165 51.1858L51.3134 51.131C50.8165 51.1858 50.8165 51.1862 50.8165 51.1866L50.8166 51.1874L50.8168 51.1891L50.8173 51.193L50.8185 51.2023C50.8194 51.2092 50.8206 51.2175 50.8222 51.227C50.8253 51.2461 50.8298 51.2705 50.8363 51.2994C50.8492 51.357 50.87 51.4334 50.9032 51.5221C50.9696 51.6995 51.0869 51.9291 51.292 52.1562C51.7153 52.625 52.4458 53.0112 53.6542 53.0112C54.8635 53.0112 55.6162 52.6252 56.068 52.1755C56.2883 51.9562 56.4245 51.7341 56.5065 51.5616C56.5476 51.4754 56.5754 51.4011 56.5936 51.3449C56.6028 51.3167 56.6096 51.293 56.6145 51.2744C56.6169 51.2651 56.6189 51.2571 56.6205 51.2504L56.6226 51.2415L56.6234 51.2378L56.6238 51.2361L56.6239 51.2353C56.624 51.235 56.6241 51.2346 56.1349 51.131L56.6241 51.2346L56.6349 51.1834V51.131V30.7918C56.6349 29.1684 56.3063 27.6956 55.6378 26.3843C54.9727 25.0794 54.0473 24.023 52.8641 23.2239C51.6826 22.4094 50.2881 22.0114 48.7033 22.0114C47.162 22.0114 45.7719 22.4118 44.5488 23.2197C43.3396 24.0184 42.3995 25.076 41.7325 26.3843L41.7325 26.3843L41.729 26.3913C41.0871 27.7011 40.7717 29.1714 40.7717 30.7918V43.9359C40.7717 44.3935 40.6694 44.8084 40.4675 45.1889L40.4674 45.1888L40.4633 45.197C40.2863 45.5459 40.0324 45.8284 39.6935 46.0495L39.6934 46.0493L39.6818 46.0573C39.3766 46.2688 39.0526 46.3703 38.6978 46.3703C38.3133 46.3703 37.9782 46.2657 37.6776 46.0573C37.3602 45.8374 37.0993 45.5516 36.8942 45.1925C36.7155 44.8124 36.624 44.3959 36.624 43.9359V30.7918C36.624 29.1684 36.2953 27.6956 35.6269 26.3843C34.9613 25.0786 34.0352 24.0217 32.851 23.2224L32.5766 23.629L32.851 23.2224C31.6471 22.4099 30.2421 22.0114 28.6561 22.0114C27.1147 22.0114 25.7246 22.4118 24.5016 23.2197L24.5016 23.2197L24.4974 23.2224C23.3132 24.0217 22.3872 25.0786 21.7216 26.3843L21.7215 26.3843L21.7181 26.3913C21.0761 27.7011 20.7607 29.1714 20.7607 30.7918V51.131V51.159L20.7639 51.1867L21.2607 51.131C20.7639 51.1867 20.7639 51.187 20.7639 51.1874L20.764 51.188L20.7642 51.1895L20.7646 51.193L20.7657 51.2018C20.7666 51.2085 20.7678 51.2168 20.7693 51.2267C20.7724 51.2465 20.7769 51.2725 20.7833 51.3039C20.7961 51.3666 20.8167 51.4514 20.8494 51.5512C20.9144 51.7496 21.0293 52.014 21.2308 52.2796C21.6496 52.8318 22.3938 53.3238 23.639 53.3238C24.8835 53.3238 25.639 52.8328 26.0724 52.289C26.2817 52.0264 26.4057 51.7645 26.4778 51.5674C26.514 51.4683 26.5378 51.384 26.5529 51.3217C26.5605 51.2905 26.5659 51.2647 26.5697 51.2451C26.5716 51.2352 26.5731 51.2269 26.5743 51.2203L26.5757 51.2116L26.5762 51.2082L26.5765 51.2067L26.5766 51.206C26.5766 51.2057 26.5767 51.2054 26.0822 51.131L26.5767 51.2054L26.5822 51.1684V51.131V30.1487C26.5822 29.6909 26.6846 29.2944 26.8803 28.9471L26.8805 28.9472L26.8864 28.9359C27.0943 28.544 27.3572 28.2455 27.6721 28.0273C27.9773 27.8157 28.3013 27.7143 28.6561 27.7143C29.0406 27.7143 29.3757 27.8189 29.6764 28.0273L29.6763 28.0274L29.688 28.0351C30.0243 28.2544 30.2941 28.5511 30.4983 28.9359L30.4981 28.936L30.5044 28.9471C30.7001 29.2944 30.8025 29.6909 30.8025 30.1487V43.2928C30.8025 44.967 31.13 46.4789 31.7976 47.817L31.7975 47.8171L31.8031 47.8277C32.4933 49.1315 33.432 50.1749 34.6187 50.9472Z" fill="#1D1D1D" stroke="#D7D7D7"/>
<path d="M23.7517 49.9125V46.5912" stroke="white" stroke-width="0.5"/>
<path d="M53.6438 49.9125V46.5912" stroke="white" stroke-width="0.5"/>
<path d="M23.7517 39.9485V36.6271" stroke="white" stroke-width="0.5"/>
<path d="M53.6438 39.9485V36.6271" stroke="white" stroke-width="0.5"/>
<path d="M23.7517 44.9305V41.6092" stroke="white" stroke-width="0.5"/>
<path d="M53.6438 44.9305V41.6092" stroke="white" stroke-width="0.5"/>
<path d="M23.7517 34.9665V31.6451" stroke="white" stroke-width="0.5"/>
<path d="M23.6389 30.5072V27.1859" stroke="white" stroke-width="0.5"/>
<path d="M27.3909 24.5596H29.8921" stroke="white" stroke-width="0.5"/>
<path d="M53.6438 34.9665V31.6451" stroke="white" stroke-width="0.5"/>
<path d="M53.6438 31.1325V27.8112" stroke="white" stroke-width="0.5"/>
<path d="M43.6489 46.0786V42.7573" stroke="white" stroke-width="0.5"/>
<path d="M33.644 46.0786V42.7573" stroke="white" stroke-width="0.5"/>
<path d="M43.6489 36.1146V32.7932" stroke="white" stroke-width="0.5"/>
<path d="M33.644 36.1146V32.7932" stroke="white" stroke-width="0.5"/>
<path d="M43.6489 41.0966V37.7752" stroke="white" stroke-width="0.5"/>
<path d="M33.644 41.0966V37.7752" stroke="white" stroke-width="0.5"/>
<path d="M43.6489 31.1325V27.8112" stroke="white" stroke-width="0.5"/>
<path d="M33.644 31.1325V27.8112" stroke="white" stroke-width="0.5"/>
<path d="M23.8635 26.1886C24.0426 25.6079 24.7542 24.4657 26.167 24.5425" stroke="white" stroke-width="0.5"/>
<path d="M31.1428 24.6846C31.7323 24.832 32.9114 25.4805 32.9114 26.8954" stroke="white" stroke-width="0.5"/>
<path d="M39.8972 49.6973L37.396 49.6973" stroke="white" stroke-width="0.5"/>
<path d="M48.0264 24.5596L50.5276 24.5596" stroke="white" stroke-width="0.5"/>
<path d="M43.4512 48.0541C43.2721 48.6348 42.5605 49.7769 41.1477 49.7002" stroke="white" stroke-width="0.5"/>
<path d="M44.499 26.1886C44.6781 25.6079 45.3897 24.4657 46.8025 24.5425" stroke="white" stroke-width="0.5"/>
<path d="M35.8716 49.4068C35.2821 49.2594 34.103 48.6109 34.103 47.196" stroke="white" stroke-width="0.5"/>
<path d="M51.7783 24.6846C52.3678 24.832 53.5469 25.4805 53.5469 26.8954" stroke="white" stroke-width="0.5"/>
</svg>
