<svg width="50" height="50" viewBox="0 0 50 50" fill="none" xmlns="http://www.w3.org/2000/svg">
<path fill-rule="evenodd" clip-rule="evenodd" d="M24.9999 6.25001C14.6446 6.25001 6.24992 14.6447 6.24992 25C6.24992 35.3554 14.6446 43.75 24.9999 43.75C35.3553 43.75 43.7499 35.3554 43.7499 25C43.7499 14.6447 35.3553 6.25001 24.9999 6.25001ZM2.08325 25C2.08325 12.3435 12.3434 2.08334 24.9999 2.08334C37.6564 2.08334 47.9166 12.3435 47.9166 25C47.9166 37.6565 37.6564 47.9167 24.9999 47.9167C12.3434 47.9167 2.08325 37.6565 2.08325 25ZM19.8502 14.8299C20.5276 14.4673 21.3496 14.5071 21.9889 14.9332L34.4889 23.2666C35.0685 23.653 35.4166 24.3034 35.4166 25C35.4166 25.6966 35.0685 26.3471 34.4889 26.7334L21.9889 35.0668C21.3496 35.493 20.5276 35.5327 19.8502 35.1702C19.1728 34.8076 18.7499 34.1017 18.7499 33.3333V16.6667C18.7499 15.8984 19.1728 15.1924 19.8502 14.8299ZM22.9166 20.5594V29.4406L29.5775 25L22.9166 20.5594Z" fill="white"/>
</svg>
