<svg width="16" height="16" viewBox="0 0 16 16" fill="none" xmlns="http://www.w3.org/2000/svg">
<path fill-rule="evenodd" clip-rule="evenodd" d="M2 4.00001C1.63181 4.00001 1.33333 4.29848 1.33333 4.66667V11.3333C1.33333 11.7015 1.63181 12 2 12H9.33333C9.70152 12 10 11.7015 10 11.3333V4.66667C10 4.29848 9.70152 4.00001 9.33333 4.00001H2ZM11.3333 6.70455V4.66667C11.3333 3.5621 10.4379 2.66667 9.33333 2.66667H2C0.895431 2.66667 0 3.5621 0 4.66667V11.3333C0 12.4379 0.89543 13.3333 2 13.3333H9.33333C10.4379 13.3333 11.3333 12.4379 11.3333 11.3333V9.29546L14.9458 11.8758C15.1491 12.021 15.4163 12.0404 15.6384 11.9261C15.8604 11.8118 16 11.5831 16 11.3333V4.66667C16 4.41695 15.8604 4.18816 15.6384 4.07389C15.4163 3.95962 15.1491 3.97903 14.9458 4.12418L11.3333 6.70455ZM11.8136 8L14.6667 10.0379V5.96213L11.8136 8Z" fill="white"/>
</svg>
